<svg width="76" height="76" viewBox="0 0 76 76" fill="none" xmlns="http://www.w3.org/2000/svg">
<circle cx="38" cy="38" r="35.5" stroke="white" stroke-width="5"/>
<path d="M39.9922 54H35.6562V28.6406H39.9922V54ZM35.3047 21.9141C35.3047 21.2109 35.5156 20.6172 35.9375 20.1328C36.375 19.6484 37.0156 19.4062 37.8594 19.4062C38.7031 19.4062 39.3438 19.6484 39.7812 20.1328C40.2188 20.6172 40.4375 21.2109 40.4375 21.9141C40.4375 22.6172 40.2188 23.2031 39.7812 23.6719C39.3438 24.1406 38.7031 24.375 37.8594 24.375C37.0156 24.375 36.375 24.1406 35.9375 23.6719C35.5156 23.2031 35.3047 22.6172 35.3047 21.9141Z" fill="white"/>
</svg>
