<svg version="1.1" id="Layer_1" xmlns="http://www.w3.org/2000/svg" x="0" y="0" viewBox="0 0 831.5 446.8" style="enable-background:new 0 0 831.5 446.8" xml:space="preserve"><style>.st0{fill:#fff}.st1{fill:#33c997}</style><path class="st0" d="M623.2 150.8c14.3 3 28.6 5.9 42.9 8.9 20.8 4.4 41.9 7.8 61.6 16.5 37.9 16.7 63 43.9 72 85.2 5.6 25.8 5.5 51.3-2.8 76.4-8.6 25.6-26.4 41.5-52.9 47.9-21 5.1-41.6 2.9-62.3-1.4-33.4-7.1-66.6-14.7-100.1-20.8-14-2.6-28.5-2-42.8-2.9-37.4-2.2-75-3.1-112.2-7-25.2-2.6-49.7 1.5-74.5 2.8-32.3 1.7-64.4 4.9-96.7 7-6.5.4-13-1.4-17.5-6.8-1.8-2.2-2.7-1.4-4.2-.1-27.2 22.6-59.7 30.1-93.7 32.1-18.6 1.1-37.1-1-55.4-5.6-13.6-3.4-17.3-10.9-17.8-21.8-.6-13.1-.4-26.3-.1-39.5.4-14.3 10-22.4 23.9-20.9.4-.8-.2-1.2-.7-1.6-15.2-9.8-21.8-24.8-23.8-41.9-3.3-29 8.7-51.7 31-69 30.2-23.4 65.3-32.1 103-30.7 11.8.4 12.7.4 20.1-8.7 1.3-1.5.3-1.9-.6-2.6-5.5-4.5-6.9-10.9-7-17.5-.2-19.3-.1-38.7 0-58 .1-15 8.3-23.1 23.3-23.1 12.9 0 26-1.2 38.6 3 .7.2 1.7.3 2.4 0 17.9-5.6 35.7-3.9 53.6.2 3.4.8 6.7 2.4 9.2 4.8 2.9 2.8 5 2.1 8 0 20.9-14.9 53.5-12.3 71.9 5.5 1.2 1.1 2.1 2.6 3.3 3.7 1.2 1.2 1.4 4 3.6 3.4 1.7-.4 1.7-2.8 1.9-4.3 1.9-11.7 10.7-16.1 20.7-16.2 20.3-.4 40.6-.2 60.9 0 4.6 0 9.3 1 13.1 4.1 1.1.9 2.1 1.6 3.9.7 14.7-7.1 29.9-8.4 45.5-3.5 1.1.3 2.3 1 3.3.7 17.4-4.4 35.2-1.2 52.7-2.1 3.1-.2 6.4-.2 9.4.4 11.4 2.3 15.7 6.8 17.8 18.4.9 4.9.7 10 .1 14.9-1.2 9.2-5.6 15.9-15.3 17.8-2.4.5-2.6 1.9-2.5 3.9.1 8.7.2 17.3 0 26-.2 7.8-2.4 14.7-9.7 19.1-1.6.9-3.2 1.4-5.1 2.6z"/><path class="st0" d="M622.6 151.3c14.3 3 28.6 5.9 42.9 8.9 20.8 4.4 41.9 7.8 61.6 16.5 37.9 16.7 63 43.9 72 85.2 5.6 25.8 5.5 51.3-2.8 76.4-8.6 25.6-26.4 41.5-52.9 47.9-21 5.1-41.6 2.9-62.3-1.4-33.4-7.1-66.6-14.7-100.1-20.8-14-2.6-28.5-2-42.8-2.9-37.4-2.2-75-3.1-112.2-7-25.2-2.6-49.7 1.5-74.5 2.8-32.3 1.7-64.4 4.9-96.7 7-6.5.4-13-1.4-17.5-6.8-1.8-2.2-2.7-1.4-4.2-.1-27.2 22.6-59.7 30.1-93.7 32.1-18.6 1.1-37.1-1-55.4-5.6-13.6-3.4-17.3-10.9-17.8-21.8-.6-13.1-.4-26.3-.1-39.5.4-14.3 10-22.4 23.9-20.9.4-.8-.2-1.2-.7-1.6-15.2-9.8-21.8-24.8-23.8-41.9-3.3-29 8.7-51.7 31-69 30.2-23.4 65.3-32.1 103-30.7 11.8.4 12.7.4 20.1-8.7 1.3-1.5.3-1.9-.6-2.6-5.5-4.5-6.9-10.9-7-17.5-.2-19.3-.1-38.7 0-58 .1-15 8.3-23.1 23.3-23.1 12.9 0 26-1.2 38.6 3 .7.2 1.7.3 2.4 0 17.9-5.6 35.7-3.9 53.6.2 3.4.8 6.7 2.4 9.2 4.8 2.9 2.8 5 2.1 8 0 20.9-14.9 53.5-12.3 71.9 5.5 1.2 1.1 2.1 2.6 3.3 3.7 1.2 1.2 1.4 4 3.6 3.4 1.7-.4 1.7-2.8 1.9-4.3 1.9-11.7 10.7-16.1 20.7-16.2 20.3-.4 40.6-.2 60.9 0 4.6 0 9.3 1 13.1 4.1 1.1.9 2.1 1.6 3.9.7 14.7-7.1 29.9-8.4 45.5-3.5 1.1.3 2.3 1 3.3.7 17.4-4.4 35.2-1.2 52.7-2.1 3.1-.2 6.4-.2 9.4.4 11.4 2.3 15.7 6.8 17.8 18.4.9 4.9.7 10 .1 14.9-1.2 9.2-5.6 15.9-15.3 17.8-2.4.5-2.6 1.9-2.5 3.9.1 8.7.2 17.3 0 26-.2 7.8-2.4 14.7-9.7 19.1-1.6.9-3.3 1.4-5.1 2.6z"/><path class="st0" d="M590.5 345.3c27.6 5.8 54.9 11.4 82.2 17.2 17.9 3.8 35.8 7.2 54.3 6.1 27-1.6 45.9-16.7 52.9-42.7 4.2-15.7 4.6-31.6 2.7-47.5-2.4-20.6-9.2-39.4-22.9-55.3-15.6-18.2-36-28.6-58.5-35.2-20.9-6.1-42.4-9.4-63.7-14-15.6-3.4-31.3-6.5-47.6-9.9 2.3 3.4 3.9 6.4 6.1 8.9 3.9 4.4 4.8 9.4 4.8 15.1-.2 43.6-.3 87.3.1 130.9.1 10.2-.6 19.1-9.8 25.2-.2.1-.2.5-.6 1.2zM411.6 198.6c0-15.4-.1-29.7.1-44.1 0-3.4-1-4.2-4.3-3.9-15.6 1.3-31.2 2.2-46.8 3.4-34.7 2.6-69.4 5.3-104.1 7.8-3.1.2-4.3 1.1-4.3 4.4.1 57.8.1 115.7 0 173.5 0 3 .7 4.1 3.9 3.9 14.6-1.2 29.2-2.3 43.8-3.4 24.9-1.9 49.8-3.7 74.7-5.6 11.1-.8 22.2-1.7 33.4-2.6 1.8-.1 3.7.1 3.7-2.8-.1-14.9 0-29.8 0-45.7-4.6 3.9-8.4 7-12.1 10.3-1.4 1.3-2.9 1.9-4.8 2.1-28.7 2.1-57.5 4.2-86.2 6.5-3.1.2-3.7-.7-3.7-3.5.1-9.5.2-19 0-28.5-.1-3.2 1.1-3.8 4-4 21.4-1.5 42.8-3.3 64.3-4.8 3.6-.2 4.5-1.5 4.4-4.8-.2-8.3-.1-16.7-.1-25 0-6.5 0-6.2-6.2-5.7-20.7 1.7-41.5 3.2-62.2 4.9-3.6.3-4.1-1.2-4.1-4.2.1-7.7 0-15.3 0-23 0-8.6 0-8.5 8.8-9.2 26.2-1.9 52.5-3.8 78.7-5.9 3.4-.3 6.1.3 8.8 2.4 3 2.6 6.4 4.7 10.3 7.5zM582.7 209.9c0-15.4-.1-29.6.1-43.9 0-3.5-1-4.5-4.4-4.6-28.4-1.5-56.8-3.2-85.3-4.8-22.1-1.3-44.2-2.4-66.3-3.8-3-.2-3.7.7-3.7 3.5.1 58 .1 115.9 0 173.9 0 2.7.6 4.1 3.5 4.1 2.3 0 4.7.3 7 .4 20.4 1.2 40.9 2.3 61.3 3.5 28.1 1.6 56.2 3.2 84.3 4.9 3.1.2 3.6-1 3.6-3.7-.1-13.2 0-26.3 0-39.5V295c-3 2.2-5.6 3.6-7.6 5.5-4 3.8-8.6 4.9-14.1 4.5-27.2-1.8-54.5-3.4-81.8-4.9-2.5-.1-3.4-.9-3.4-3.5.1-9.7.1-19.3 0-29 0-2.9.9-3.7 3.8-3.5 21.6 1.8 43.2 1.8 64.7 4.5 2.8.3 4.3 0 4.2-3.5-.2-9.3-.2-18.7 0-28 .1-3-1.1-4-4-4.2-21.6-1.3-43.2-2.7-64.8-3.9-3.1-.2-4-1.1-3.9-4.1.2-8.3.1-16.7.1-25 0-7.4 0-7.2 7.2-6.8 26.4 1.6 52.8 3.1 79.3 4.5 4 .2 7.4 1 10.3 3.9 2.7 2.8 6 5.1 9.9 8.4zM233.4 163.1c-2.6 2.9-4.4 4.9-6.1 6.9-1.9 2.1-3.8 4.2-5.5 6.5-1.5 1.9-3.2 2.3-5.7 2-29.2-4-57.4-1-84.4 11.4-16.7 7.6-31.1 18-40.4 34.3-15.8 27.7-3.7 57.4 26.7 66.5 12.5 3.7 25.5 4.5 38.4 6 8.8 1 17.6 2 25.5 6.2 7 3.7 7.9 9.7 2.9 15.7-3.2 3.9-7.6 5.9-12.3 7.3-16.5 5-33.4 5.8-50.4 3.6-12.2-1.6-23.9-5-36-9.5v40.9c0 2.3 1.5 2.5 3.2 3 9.5 2.9 19.2 3.5 29 4.3 26.8 2.2 52.9-1.2 77.6-11.8 23.4-10 40.6-25.6 45.3-52.2 4.3-24.2-5.4-41.4-28.5-49.6-14.6-5.2-30.1-5.1-45.1-7.6-8.2-1.4-16.5-2.3-24.1-5.9-6-2.9-6.9-7.7-2.9-13 3-3.9 7.1-5.9 11.6-7.4 10.4-3.4 21.1-4.6 31.9-4.9 15.2-.5 30.2 1.4 45.1 4.6 2.5.5 4.1.7 4.1-2.7.1-17.9.1-35.5.1-54.6zM415 99c-.1-20-14.3-33.3-35.6-33.2-20 .1-34.4 14.2-34.3 33.7.1 19.3 15.2 34 35 33.9 20.3-.1 35-14.5 34.9-34.4zM339.1 131.6c-5.3-8.8-10.1-16.7-15-24.6-1.1-1.8-1.4-2.8 1-4.1 8.5-4.5 11.6-10.4 10.6-18.9-.9-7.7-6-13.1-15-15.3-9.5-2.3-19.2-.6-28.8-1.2-3.8-.2-5.1.8-5.1 4.9.2 16.1.1 32.3.1 48.4 0 11.6 0 11.5 11.8 10.9 2.4-.1 3.2-.8 3.1-3.2-.1-5.7-.2-11.3 0-17 .1-1.8-1.6-4.6 1.7-5.5 3.3-.9 4.7 1.4 6 3.9 3.3 6.3 6.8 12.5 10.2 18.8.9 1.7 1.7 3 4 2.9 4.9-.2 9.7 0 15.4 0zM554.3 65.7c-9.4.2-17.5 2.6-24.3 8.7-12.6 11.3-14.3 32.2-3.9 45.9 10.2 13.4 31.9 17.2 45.9 8.1 7.4-4.8 7.4-4.8.9-10.9-.7-.7-1.6-1.3-2.1-2.1-1.6-2.2-2.8-2.1-5-.3-6.8 5.7-17.4 5.3-23.8-.5-6.8-6.3-8-19.2-2.5-27.1 5.2-7.4 15.3-10.7 22.9-5.8 5.4 3.5 8 1.9 11.1-2.1.7-.9 1.6-1.8 2.5-2.5 2.1-1.6 1.7-2.7-.3-4.2-6.4-5.1-13.8-6.9-21.4-7.2zM232.3 99.7v20.5c0 11.8 0 11.6 11.8 11.5 3.3 0 3.8-1.3 3.7-4.1-.2-5.3.1-10.7-.1-16-.1-3.2.7-4.6 4.1-4.2 4 .4 8-.2 11.9-.9 10.4-1.8 16.8-8.7 17.2-18.3.4-10.8-4.4-17.2-15.7-19.6-10.2-2.2-20.5-.7-30.8-1-2.7-.1-2.1 2.1-2.1 3.7-.1 9.4 0 18.9 0 28.4zM610.9 67.5h-17c-9.7 0-9.6 0-9.2 9.7.1 2.6.9 3.5 3.5 3.4 3.7-.2 7.3.2 11-.1 3.2-.2 3.9 1.1 3.8 4-.1 12.2-.1 24.3-.1 36.5 0 10.9 0 10.7 11.1 10.7 3.3 0 4.2-1.1 4.2-4.3-.2-12.3-.1-24.6-.1-37 0-9.9 0-9.9 9.9-9.9 8.6 0 8.5 0 8.5-8.8 0-3.2-.7-4.4-4.2-4.3-7.1.3-14.2.1-21.4.1zM462.7 93.7c0-7.7-.4-13.9.1-20 .4-5.1-1.2-6.5-6.3-6.2-9.1.4-9 .1-9.1 9.3-.2 12.3.6 24.6-.4 36.9-.2 2.7-1.3 4.8-4.2 5.5-2.7.7-5.4.1-6.6-2.2-1.6-3-3.5-2.6-6-1.7-2 .8-4 1.6-6.1 2.1-3 .7-3 2.2-1.9 4.6 3.5 7.3 12.4 12.2 21.1 11.5 10.1-.9 16.1-5.8 18.4-15.3 2.2-8.8.4-17.5 1-24.5zM490.8 131.6h14c9 0 8.8 0 8.9-8.9 0-3.4-1.2-4.2-4.3-4.1-10.5.2-21 .1-31.5.1-9.3 0-9.2 0-9.1 9.3 0 3.3 1.2 3.9 4.1 3.8 5.9-.4 11.9-.2 17.9-.2zM490.1 80.5h13c8.7 0 8.6 0 8.7-8.5.1-3.4-.8-4.6-4.4-4.5-10 .2-19.9.1-29.9.1-9.1 0-8.9 0-8.8 9 0 2.9.8 4.1 3.9 4 5.9-.3 11.7-.1 17.5-.1zM488.9 104.8c6 0 12-.1 17.9 0 2.6.1 3.7-.8 3.4-3.4-.1-1.3-.2-2.7 0-4 .5-3.7-.8-4.9-4.6-4.8-11 .3-21.9.2-32.9 0-3 0-4.3.8-3.9 3.9.2 1.3.2 2.7 0 4-.4 3.2.7 4.5 4.1 4.3 5.3-.2 10.6 0 16 0z"/><path class="st1" d="M590.5 345.3s1.1-.8 1.4-1c9.2-6.1 9.1-6.9 9.1-6.9l-.1-159.3s-8.6-10.8-10.9-14.2c16.3 3.4 32 6.6 47.6 9.9 21.2 4.6 42.8 7.9 63.7 14 22.5 6.6 42.9 17 58.5 35.2 13.7 16 20.5 34.8 22.9 55.3 1.9 16 1.5 31.9-2.7 47.5-7 26-25.9 41.1-52.9 42.7-18.5 1.1-36.4-2.4-54.3-6.1-27.4-5.6-82.3-17.1-82.3-17.1zm63.1-77.2v53.1s-.8.1 2.2.6c13.7 2.2 27.1 6.9 41.3 6.2 13.8-.6 23.6-7.7 28.2-20.7 4.1-11.8 4.2-23.9 2.7-36-2.9-23.9-15.4-40.6-38.5-48.6-10.2-3.6-21-4.9-31.5-7.4-3.6-.9-4.4-.9-4.4-.9v53.7zM411.6 198.6c-4-2.8-7.3-4.9-10.4-7.4-2.7-2.1-5.4-2.7-8.8-2.4-26.2 2.1-52.5 4-78.7 5.9-8.8.6-8.8.7-8.8.7v36s.4 0 4.1-.3c20.7-1.7 41.5-3.2 62.2-4.9 6.3-.5 6.2-.4 6.2-.4l.1 35.7s-.8 0-4.4.3c-21.4 1.5-42.8 3.3-64.3 4.8-2.9.2-4 0-4 0v36.5s.6-.3 3.7-.5c28.7-2.3 57.4-4.4 86.2-6.5 2-.1 3.4-.8 4.8-2.1 3.7-3.3 7.5-6.4 12.1-10.3v48.1s-1.9.3-3.7.4c-11.1.9-22.2 1.7-33.4 2.6-24.9 1.9-49.8 3.7-74.7 5.6-14.6 1.1-29.2 2.2-43.8 3.4-3.2.3-3.9.7-3.9.7V162.4s1.1-.2 4.3-.4c34.7-2.5 69.4-5.2 104.1-7.8 15.6-1.2 31.2-2.1 46.8-3.4 3.3-.3 4.3-.3 4.3-.3v48.1zM582.7 209.9c-4-3.3-7.2-5.6-10-8.5-2.9-3-6.3-3.7-10.3-3.9-26.4-1.4-52.9-2.9-79.3-4.5-7.2-.4-7.2-.5-7.2-.5l-.1 36s.8.2 3.9.4c21.6 1.2 43.2 2.7 64.8 3.9 2.9.2 4 .4 4 .4v35.5s-1.4.1-4.2-.2c-21.5-2.6-43.2-2.7-64.7-4.5-2.9-.2-3.8-.3-3.8-.3v36.1s.9 0 3.4.1c27.3 1.6 54.5 3.1 81.8 4.9 5.5.4 10.1-.7 14.1-4.5 2-1.9 4.5-3.3 7.6-5.5v48.1s-.5.1-3.6-.1c-28.1-1.7-56.2-3.3-84.3-4.9-20.4-1.2-40.9-2.3-61.3-3.5-2.3-.1-4.7-.4-7-.4-2.9 0-3.5-.4-3.5-.4V152.4s.8-.1 3.7.1c22.1 1.4 44.2 2.6 66.3 3.8 28.4 1.6 56.8 3.3 85.3 4.8 3.4.2 4.4.3 4.4.3v48.5zM233.4 163.1v57.8s-1.6-.2-4.1-.8c-14.9-3.1-29.9-5-45.1-4.6-10.8.3-21.6 1.5-31.9 4.9-4.5 1.5-8.6 3.5-11.6 7.4-4.1 5.3-3.1 10.2 2.9 13 7.6 3.6 15.9 4.6 24.1 5.9 15 2.5 30.5 2.4 45.1 7.6 23.1 8.2 32.8 25.4 28.5 49.6-4.8 26.6-21.9 42.1-45.3 52.2-24.8 10.7-50.8 14-77.6 11.8-9.8-.8-19.5-1.5-29-4.3-1.7-.5-3.2-.8-3.2-.8v-43.1c12 4.4 23.8 7.9 36 9.5 17 2.2 33.9 1.4 50.4-3.6 4.7-1.4 9-3.5 12.3-7.3 5.1-6 4.1-12-2.9-15.7-8-4.2-16.8-5.2-25.5-6.2-12.9-1.4-25.8-2.2-38.4-6-30.4-9-42.5-38.8-26.7-66.5 9.3-16.3 23.8-26.7 40.4-34.3 27-12.3 55.2-15.3 84.4-11.4 2.4.3 4.1-.1 5.7-2 1.7-2.2 3.6-4.3 5.5-6.5 1.6-1.7 3.4-3.6 6-6.6zM415 99c.1 19.9-14.6 34.3-34.8 34.4-19.8.1-34.9-14.6-35-33.9-.1-19.4 14.3-33.6 34.3-33.7C400.7 65.7 414.9 79 415 99zm-53.4.2c0 11.7 7.5 20.1 18.2 20.2 11 .1 18.8-8.3 18.9-20.1 0-11.5-7.7-19.7-18.6-19.8-10.9-.1-18.5 8-18.5 19.7zM339.1 131.6c-5.7 0-10.5-.1-15.3.1-2.3.1-3.1-1.2-4-2.9-3.4-6.3-12.2-22.5-12.2-22.5s-1.2-.1-3.1-.1h-2.6s-.2 16.6 0 22.2c.1 2.4.1 3.2.1 3.2l-15 .1-.1-64.1s1.3-.1 5.1-.2c9.6-.1 19.3-1.1 28.8 1.2 8.9 2.2 14 7.6 15 15.3 1 8.5-2.1 14.4-10.6 18.9-2.4 1.3-2.6 1.5-2.6 1.5s11.2 18.5 16.5 27.3zm-37.4-51.7.2 15s4 .1 7.8 0c7.3-.1 11.2-2.9 11-8-.1-4.7-3.6-7-10.7-7.2h-1l-7.3.2zM554.3 65.7c7.5.3 15 2.1 21.4 7.1 1.9 1.5 2.2 1.8 2.2 1.8l-9.6 10.7s-.6-.2-6-3.7c-7.6-4.3-17.7-1.6-22.9 5.8-5.5 7.9-4.3 20.9 2.5 27.1 6.4 5.9 18 5.3 23.8.5 2.2-1.8 2.7-2.3 2.7-2.3l10.4 11s-1.6 1.2-6.9 4.5c-14 9.1-35.8 5.3-45.9-8.1-10.4-13.7-8.7-34.6 3.9-45.9 6.9-5.8 15.1-8.3 24.4-8.5zM232.3 99.7V71.3c0-1.5.1-3.6.1-3.6s22.7-1.3 32.8.9c11.3 2.4 16.1 8.8 15.7 19.6-.4 9.6-6.7 16.5-17.2 18.3-3.9.7-11.9.9-11.9.9h-4.1l.1 24.3h-3.7l-11.8.1V99.7zm15.4-20 .1 15.5s2.6-.1 5-.1c9.2 0 13.1-2.4 12.9-8-.2-5.2-3.9-7.4-13-7.4-3.7-.1-5 0-5 0zM462.7 93.7s-.1 19.8-1 24.3c-2.3 9.5-8.2 14.4-18.4 15.3-8.7.8-17.5-4.1-21.1-11.5-1.2-2.4-1.4-3.6-1.4-3.6s7.4-2.3 9.4-3l4-1.5s1.3 2.2 2 3.2c1.4 2.1 3.9 3 6.6 2.2 2.9-.7 3.9-2.8 4.2-5.5 1-12.3.4-46.4.4-46.4s1.3.2 7.9 0c5-.1 7.5-.1 7.5-.1l-.1 26.6zM468.8 67.5h43v12.9h-43zM636.5 67.5h-52.1v12.9H603v51h15v-51h18.5zM468.8 92.4h41.5v12.9h-41.5zM468.8 118.5h44.6v12.9h-44.6z"/></svg>