<svg width="24" height="20" viewBox="0 0 24 20" fill="none" xmlns="http://www.w3.org/2000/svg">
<rect width="24" height="20" fill="#E5E5E5"/>
<g clip-path="url(#clip0_0_1)">
<rect x="-30" y="-79" width="398" height="178" rx="29" fill="#13808E" fill-opacity="0.5" stroke="url(#paint0_linear_0_1)" stroke-width="2"/>
<path d="M22.7368 16.6667V17.7778C22.7368 19 21.6 20 20.2105 20H2.52632C1.12421 20 0 19 0 17.7778V2.22222C0 1 1.12421 0 2.52632 0H20.2105C21.6 0 22.7368 1 22.7368 2.22222V3.33333H11.3684C9.96632 3.33333 8.84211 4.33333 8.84211 5.55556V14.4444C8.84211 15.6667 9.96632 16.6667 11.3684 16.6667H22.7368ZM11.3684 14.4444H24V5.55556H11.3684V14.4444ZM16.4211 11.6667C15.3726 11.6667 14.5263 10.9222 14.5263 10C14.5263 9.07778 15.3726 8.33333 16.4211 8.33333C17.4695 8.33333 18.3158 9.07778 18.3158 10C18.3158 10.9222 17.4695 11.6667 16.4211 11.6667Z" fill="white"/>
</g>
<rect x="-50.5" y="-377.5" width="439" height="540" rx="4.5" stroke="#9747FF" stroke-dasharray="10 5"/>
<defs>
<linearGradient id="paint0_linear_0_1" x1="-31" y1="10" x2="369" y2="10" gradientUnits="userSpaceOnUse">
<stop stop-color="#1D0071"/>
<stop offset="1" stop-color="#00AED3"/>
</linearGradient>
<clipPath id="clip0_0_1">
<rect width="400" height="151" fill="white" transform="translate(-31 -51)"/>
</clipPath>
</defs>
</svg>
